<svg width="14" height="10" viewBox="0 0 14 10" fill="none" xmlns="http://www.w3.org/2000/svg">
<path fill-rule="evenodd" clip-rule="evenodd" d="M9.13827 1.73756C9.58588 1.30434 9.80968 1.08773 9.75839 0.821948C9.70709 0.55617 9.43708 0.445886 8.89707 0.225318C8.81351 0.191188 8.72939 0.158091 8.64472 0.126044C8.3859 0.0280746 8.25648 -0.02091 8.11423 0.00846186C7.97197 0.0378337 7.86608 0.140321 7.6543 0.345295L7.03812 0.941682C5.84757 2.09397 3.91732 2.09397 2.72677 0.941683L2.11093 0.345634C1.89913 0.140639 1.79323 0.038142 1.65096 0.00877453C1.50869 -0.020593 1.37927 0.0284095 1.12043 0.126414C1.03589 0.158423 0.951895 0.191478 0.868458 0.225563C0.328484 0.446154 0.0584967 0.556449 0.00721291 0.822218C-0.0440708 1.08799 0.179721 1.30459 0.627305 1.73779L4.1872 5.1833C4.51595 5.50148 4.68033 5.66058 4.88267 5.66058C5.08501 5.66058 5.24939 5.50148 5.57814 5.1833L9.13827 1.73756Z" fill="white"/>
<path fill-rule="evenodd" clip-rule="evenodd" d="M4.62735 7.92308C4.17975 8.35631 3.95594 8.57292 4.00724 8.8387C4.05853 9.10447 4.32854 9.21476 4.86856 9.43533C4.95212 9.46946 5.03624 9.50255 5.1209 9.5346C5.37973 9.63257 5.50914 9.68155 5.6514 9.65218C5.79365 9.62281 5.89954 9.52032 6.11132 9.31535L6.72751 8.71896C7.91805 7.56667 9.84831 7.56667 11.0389 8.71896L11.6547 9.31501C11.8665 9.52001 11.9724 9.6225 12.1147 9.65187C12.2569 9.68124 12.3864 9.63223 12.6452 9.53423C12.7297 9.50222 12.8137 9.46917 12.8972 9.43508C13.4371 9.21449 13.7071 9.1042 13.7584 8.83843C13.8097 8.57266 13.5859 8.35606 13.1383 7.92285L9.57842 4.47735C9.24967 4.15916 9.0853 4.00007 8.88296 4.00007C8.68062 4.00007 8.51624 4.15916 8.18749 4.47735L4.62735 7.92308Z" fill="white"/>
</svg>
