<svg width="17" height="20" viewBox="0 0 17 20" fill="none" xmlns="http://www.w3.org/2000/svg">
<path d="M3.18175 6.18198C2.59597 6.76777 1.64622 6.76777 1.06043 6.18198C0.474647 5.59619 0.474647 4.64645 1.06043 4.06066C1.64622 3.47487 2.59597 3.47487 3.18175 4.06066C3.76754 4.64645 3.76754 5.59619 3.18175 6.18198Z" fill="white"/>
<path d="M9.18175 18.182C8.59597 18.7678 7.64622 18.7678 7.06043 18.182C6.47465 17.5962 6.47465 16.6464 7.06043 16.0607C7.64622 15.4749 8.59597 15.4749 9.18175 16.0607C9.76754 16.6464 9.76754 17.5962 9.18175 18.182Z" fill="white"/>
<path d="M15.1818 6.18198C14.596 6.76777 13.6462 6.76777 13.0604 6.18198C12.4746 5.59619 12.4746 4.64645 13.0604 4.06066C13.6462 3.47487 14.596 3.47487 15.1818 4.06066C15.7675 4.64645 15.7675 5.59619 15.1818 6.18198Z" fill="white"/>
<path d="M9.06066 3.18198C8.47487 3.76777 7.52513 3.76777 6.93934 3.18198C6.35355 2.59619 6.35355 1.64645 6.93934 1.06066C7.52513 0.474874 8.47487 0.474874 9.06066 1.06066C9.64645 1.64645 9.64645 2.59619 9.06066 3.18198Z" fill="white"/>
<path d="M3.18175 14.182C2.59597 14.7678 1.64622 14.7678 1.06043 14.182C0.474647 13.5962 0.474647 12.6464 1.06043 12.0607C1.64622 11.4749 2.59597 11.4749 3.18175 12.0607C3.76754 12.6464 3.76754 13.5962 3.18175 14.182Z" fill="white"/>
<path d="M15.1818 14.182C14.596 14.7678 13.6462 14.7678 13.0604 14.182C12.4746 13.5962 12.4746 12.6464 13.0604 12.0607C13.6462 11.4749 14.596 11.4749 15.1818 12.0607C15.7675 12.6464 15.7675 13.5962 15.1818 14.182Z" fill="white"/>
</svg>
