<svg width="16" height="16" viewBox="0 0 16 16" fill="none" xmlns="http://www.w3.org/2000/svg">
<path fill-rule="evenodd" clip-rule="evenodd" d="M8.30714 0.671824C7.99368 0.347958 7.83695 0.186024 7.62622 0.185185C7.41548 0.184346 7.26755 0.334782 6.97167 0.635652C6.9189 0.689306 6.86671 0.743562 6.81511 0.798408C6.54263 1.08799 6.40639 1.23278 6.4078 1.43306C6.40922 1.63335 6.55679 1.78583 6.85194 2.09078L10.4853 5.84479C11.6376 7.03533 11.6376 8.96559 10.4853 10.1561L6.85258 13.9095C6.5574 14.2145 6.40981 14.367 6.40841 14.5673C6.40701 14.7676 6.54327 14.9123 6.8158 15.2019C6.86733 15.2567 6.91944 15.3108 6.97213 15.3644C7.26801 15.6652 7.41595 15.8157 7.62667 15.8148C7.83739 15.814 7.99411 15.652 8.30755 15.3282L14.7269 8.6957C15.0451 8.36694 15.2042 8.20257 15.2042 8.00023C15.2042 7.79789 15.0451 7.63351 14.7269 7.30476L8.30714 0.671824Z" fill="white"/>
<circle cx="2.12132" cy="8" r="1.5" transform="rotate(-45 2.12132 8)" fill="white"/>
</svg>
