<svg width="16" height="11" viewBox="0 0 16 11" fill="none" xmlns="http://www.w3.org/2000/svg">
<path fill-rule="evenodd" clip-rule="evenodd" d="M11.6792 1.14249C11.246 0.694884 11.0294 0.471081 10.7636 0.522375C10.4978 0.573669 10.3875 0.843677 10.167 1.38369C10.1328 1.46725 10.0997 1.55138 10.0677 1.63604C9.96972 1.89487 9.92074 2.02428 9.95011 2.16654C9.97948 2.30879 10.082 2.41468 10.2869 2.62646L10.8833 3.24265C12.0356 4.43319 12.0356 6.36345 10.8833 7.55399L10.2873 8.16983C10.0823 8.38163 9.97979 8.48753 9.95042 8.6298C9.92106 8.77207 9.97006 8.90149 10.0681 9.16033C10.1001 9.24487 10.1331 9.32887 10.1672 9.4123C10.3878 9.95228 10.4981 10.2223 10.7639 10.2735C11.0296 10.3248 11.2462 10.101 11.6794 9.65346L15.1249 6.09356C15.4431 5.76481 15.6022 5.60043 15.6022 5.39809C15.6022 5.19575 15.4431 5.03138 15.1249 4.70262L11.6792 1.14249Z" fill="white"/>
<path d="M3.57993 4.33704C4.16572 4.92283 4.16572 5.87258 3.57993 6.45836C2.99414 7.04415 2.0444 7.04415 1.45861 6.45837C0.872823 5.87258 0.872823 4.92283 1.45861 4.33704C2.0444 3.75126 2.99414 3.75126 3.57993 4.33704Z" fill="white"/>
<path d="M8.18198 4.33704C8.76777 4.92283 8.76777 5.87258 8.18198 6.45836C7.59619 7.04415 6.64645 7.04415 6.06066 6.45837C5.47487 5.87258 5.47487 4.92283 6.06066 4.33704C6.64645 3.75126 7.59619 3.75126 8.18198 4.33704Z" fill="white"/>
</svg>
